<?xml version="1.0" encoding="UTF-8"?>
<svg id="Layer_1" xmlns="http://www.w3.org/2000/svg" viewBox="0 0 610.48 217.74">
  <defs>
    <style>
      .cls-1 {
        letter-spacing: .2em;
      }

      .cls-2 {
        letter-spacing: .11em;
      }

      .cls-3 {
        letter-spacing: .33em;
      }

      .cls-4 {
        letter-spacing: .19em;
      }

      .cls-5 {
        letter-spacing: .2em;
      }

      .cls-6 {
        letter-spacing: .2em;
      }

      .cls-7 {
        font-family: CocomatPro-ExtraBold, 'Cocomat Pro';
        font-size: 24.25px;
        font-weight: 700;
      }

      .cls-7, .cls-8, .cls-9 {
        fill: #fff7dc;
      }

      .cls-10 {
        letter-spacing: .34em;
      }

      .cls-11 {
        letter-spacing: .19em;
      }

      .cls-12 {
        letter-spacing: .2em;
      }

      .cls-13 {
        letter-spacing: .18em;
      }

      .cls-14 {
        letter-spacing: .37em;
      }

      .cls-15 {
        letter-spacing: .19em;
      }

      .cls-16 {
        letter-spacing: .2em;
      }

      .cls-17 {
        letter-spacing: .19em;
      }

      .cls-18 {
        letter-spacing: .19em;
      }

      .cls-9 {
        font-family: Alata-Regular, Alata;
        font-size: 57.88px;
      }

      .cls-19 {
        letter-spacing: .37em;
      }
    </style>
  </defs>
  <g>
    <path class="cls-8" d="M171.57,194.19v13.47c0,.23,0,.46-.02.69-.35,5.24-4.72,9.38-10.05,9.38h-83.31v-22.86l9.38-1.36v14.84h69.58c2.78,0,5.04-2.26,5.04-5.04v-9.12"/>
    <path class="cls-8" d="M78.17,185.22v-40.16h-44.3c-5.33,0-9.7-4.14-10.05-9.38-.02-.23-.02-.46-.02-.69v-64.44h0V10.07C23.8,4.74,27.94.38,33.18.02c.23-.02.46-.02.69-.02h38.37c2.59,0,4.69,2.1,4.69,4.69h0c0,2.59-2.1,4.69-4.69,4.69h-34.02c-2.78,0-5.04,2.26-5.04,5.04v1.13h0v115.1c0,2.78,2.25,5.04,5.04,5.04h39.95v-66.13h9.38v115.67"/>
    <path class="cls-8" d="M141.03,69.55c3,0,5.43,2.43,5.43,5.43v60.01c0,.23,0,.46-.02.69-.32,4.75-3.94,8.6-8.58,9.28-.48.07-.97.11-1.47.11h-34.91v-9.38h30.57c2.78,0,5.04-2.26,5.04-5.04v-51.71h-35.6v-9.38h39.56Z"/>
    <path class="cls-8" d="M9.88,9.98l-.03,12.18-.46,195.58H0L.5,14.33c0-.13,0-.25-.02-.38,0-.15-.02-.29-.05-.44-.02-.28-.03-.55-.03-.84C.39,8.26,3.42,4.54,7.51,3.49c1.18,1.4,1.99,3.12,2.26,5.02.07.48.11.97.11,1.47Z"/>
    <rect class="cls-8" x="78.17" y="180.34" width="9.38" height="18.18"/>
    <path class="cls-8" d="M165.42,133.77h2.91c1.79,0,3.23,1.45,3.23,3.23v62.53h-9.38v-62.53c0-1.79,1.45-3.23,3.23-3.23Z"/>
    <rect class="cls-8" x="78.17" y="92.61" width="9.38" height="35.85"/>
    <path class="cls-8" d="M9.88,3.19v18.97h-.03c-4.8-.01-8.75-3.58-9.37-8.21,0-.15-.02-.29-.05-.44-.02-.28-.03-.55-.03-.84C.39,8.26,3.42,4.54,7.51,3.49c.76-.2,1.55-.3,2.37-.3Z"/>
    <path class="cls-8" d="M58.41,177.63v40.11l-.02-4.21h0s-.17-33.01-.17-33.01h0c.13-.95.2-1.91.2-2.89Z"/>
    <path class="cls-8" d="M58.22,180.5h0s.17,33.01.17,33.01h0s.02,4.22.02,4.22h-9.39l.02-4.3.17-32.92h0c-.11-.84-.18-1.67-.19-2.52v-16.16c0-2.59,2.1-4.69,4.69-4.69,1.29,0,2.47.53,3.32,1.37.51.51.91,1.14,1.14,1.84.16.46.24.96.24,1.48v15.8c0,.98-.07,1.93-.2,2.87Z"/>
    <path class="cls-8" d="M49.03,177.99c.01.85.08,1.69.19,2.51h0s-.17,32.93-.17,32.93c-.01-.13-.02-.26-.02-.39v-35.05Z"/>
    <path class="cls-8" d="M58.41,177.63v35.42c0,.16,0,.31-.02.47l-.17-33h0c.13-.95.2-1.91.2-2.89Z"/>
    <path class="cls-8" d="M33.19,198.08v19.66h-9.39l.02-4.21h0s.17-33.01.17-33.01h0c-.13-.95-.2-1.91-.2-2.89v-15.8c0-2.59,2.1-4.69,4.69-4.69,1.29,0,2.47.53,3.32,1.37.51.51.91,1.14,1.14,1.85.16.46.24.96.24,1.47v36.24h0Z"/>
    <path class="cls-8" d="M23.99,180.5h0s-.17,33.01-.17,33.01c-.02-.16-.02-.31-.02-.47v-35.42c0,.98.07,1.93.2,2.87Z"/>
    <path class="cls-8" d="M49.02,177.63c0-.12,0-.23,0-.34v.7c0-.12,0-.24,0-.36Z"/>
    <path class="cls-8" d="M58.22,180.5c.13-.94.2-1.9.2-2.87v40.11l-.02-4.21h0s-.17-33.01-.17-33.01h0Z"/>
    <path class="cls-8" d="M33.19,198.08h0v-36.25"/>
  </g>
  <text class="cls-9" transform="translate(204.3 80.53)"><tspan class="cls-18" x="0" y="0">G</tspan><tspan class="cls-15" x="54.23" y="0">I</tspan><tspan class="cls-13" x="82.24" y="0">O</tspan><tspan class="cls-2" x="140.7" y="0">V</tspan><tspan class="cls-6" x="185.27" y="0">A</tspan><tspan class="cls-15" x="236.26" y="0">N</tspan><tspan class="cls-6" x="288.35" y="0">N</tspan><tspan class="cls-5" x="340.78" y="0">A </tspan></text>
  <text class="cls-9" transform="translate(204.3 139.48)"><tspan class="cls-11" x="0" y="0">U</tspan><tspan class="cls-4" x="49.54" y="0">R</tspan><tspan class="cls-16" x="95.79" y="0">Q</tspan><tspan class="cls-17" x="155.4" y="0">U</tspan><tspan class="cls-12" x="204.6" y="0">IS</tspan><tspan class="cls-1" x="274.69" y="0">A </tspan></text>
  <text class="cls-7" transform="translate(210.38 182.22) scale(1.03 1)"><tspan class="cls-19" x="0" y="0">A</tspan><tspan class="cls-10" x="27.44" y="0">DV</tspan><tspan class="cls-19" x="81.58" y="0">OGA</tspan><tspan class="cls-3" x="165.88" y="0">D</tspan><tspan class="cls-14" x="193.35" y="0">A</tspan></text>
</svg>