<?xml version="1.0" encoding="UTF-8"?>
<svg id="Layer_1" xmlns="http://www.w3.org/2000/svg" viewBox="0 0 485.43 527.37">
  <defs>
    <style>
      .cls-1 {
        fill: #6c1529;
      }

      .cls-2 {
        fill: #fff7dc;
      }
    </style>
  </defs>
  <path class="cls-2" d="M10.28,20.97h490.78c2.95,0,5.34,2.39,5.34,5.34v448.84c0,17.25-14,31.25-31.25,31.25H-15.63c-2.95,0-5.34-2.39-5.34-5.34V52.22c0-17.25,14-31.25,31.25-31.25Z" transform="translate(-20.97 506.4) rotate(-90)"/>
  <g>
    <path class="cls-1" d="M409.02,411.36v23.75c0,.41-.01.81-.04,1.22-.63,9.24-8.32,16.54-17.72,16.54h-146.88v-40.31l16.54-2.4v26.17h122.67c4.9,0,8.88-3.98,8.88-8.88v-16.09"/>
    <path class="cls-1" d="M244.36,395.55v-70.8h-78.1c-9.4,0-17.1-7.3-17.72-16.54-.03-.4-.04-.81-.04-1.22v-113.61h0v-106.63c0-9.4,7.3-17.09,16.54-17.72.4-.03.81-.04,1.22-.04h67.64c4.57,0,8.27,3.7,8.27,8.27h0c0,4.57-3.7,8.27-8.27,8.27h-59.98c-4.91,0-8.88,3.98-8.88,8.88v1.99h0v202.92c0,4.9,3.98,8.88,8.88,8.88h70.44v-116.59h16.54v203.94"/>
    <path class="cls-1" d="M355.19,191.61c5.29,0,9.57,4.29,9.57,9.57v105.8c0,.41-.01.81-.04,1.22-.57,8.38-6.94,15.16-15.13,16.36-.84.12-1.71.19-2.59.19h-61.55v-16.54h53.89c4.9,0,8.88-3.98,8.88-8.88v-91.17h-62.77v-16.54h69.74Z"/>
    <path class="cls-1" d="M123.96,86.58l-.05,21.48-.81,344.82h-16.55l.88-358.63c0-.22-.01-.45-.03-.67,0-.26-.04-.52-.09-.77-.04-.49-.06-.98-.06-1.48,0-7.78,5.33-14.34,12.55-16.19,2.08,2.46,3.5,5.5,3.99,8.85.13.84.19,1.71.19,2.58Z"/>
    <rect class="cls-1" x="244.36" y="386.94" width="16.54" height="32.06"/>
    <path class="cls-1" d="M406.24,304.83h-10.98c-1.54,0-2.78,1.25-2.78,2.78v113.17s16.54,0,16.54,0v-113.17c0-1.54-1.25-2.78-2.78-2.78Z"/>
    <rect class="cls-1" x="244.36" y="232.27" width="16.54" height="63.22"/>
    <path class="cls-1" d="M123.96,74.61v33.44h-.05c-8.46-.02-15.43-6.32-16.52-14.48,0-.26-.04-.52-.09-.77-.04-.49-.06-.98-.06-1.48,0-7.78,5.33-14.34,12.55-16.19,1.33-.35,2.74-.53,4.18-.53Z"/>
    <path class="cls-1" d="M209.52,382.16v70.71l-.04-7.43v-.02l-.31-58.18v-.02c.22-1.66.35-3.35.35-5.07Z"/>
    <path class="cls-1" d="M209.18,387.22v.02l.31,58.18v.02l.04,7.43h-16.55l.04-7.58.31-58.05v-.02c-.19-1.45-.32-2.93-.34-4.43v-28.5c0-4.57,3.7-8.27,8.27-8.27,2.28,0,4.35.93,5.85,2.42.9.9,1.6,2,2,3.25.27.81.42,1.69.42,2.6v27.86c0,1.72-.12,3.41-.35,5.07Z"/>
    <path class="cls-1" d="M192.98,382.8c.02,1.5.14,2.97.34,4.43v.02l-.31,58.05c-.02-.22-.03-.46-.03-.69v-61.8Z"/>
    <path class="cls-1" d="M209.52,382.16v62.44c0,.27,0,.55-.04.82l-.31-58.18v-.02c.22-1.66.35-3.35.35-5.07Z"/>
    <path class="cls-1" d="M165.05,418.21v34.67h-16.55l.04-7.43v-.02l.31-58.18v-.02c-.22-1.66-.35-3.35-.35-5.07v-27.86c0-4.57,3.7-8.27,8.27-8.27,2.28,0,4.36.93,5.85,2.42.91.91,1.6,2.01,2,3.26.27.81.42,1.69.42,2.59v63.9h0Z"/>
    <path class="cls-1" d="M148.84,387.22v.02l-.31,58.18c-.03-.27-.04-.55-.04-.82v-62.44c0,1.72.12,3.41.35,5.07Z"/>
    <path class="cls-1" d="M192.97,382.16c0-.2,0-.4.01-.6v1.24c-.01-.21-.01-.43-.01-.64Z"/>
    <path class="cls-1" d="M209.18,387.22c.22-1.66.35-3.35.35-5.07v70.71l-.04-7.43v-.02l-.31-58.18v-.02Z"/>
    <path class="cls-1" d="M165.05,418.21h0v-63.91"/>
  </g>
</svg>